<mxfile host="app.diagrams.net" modified="2022-06-28T11:03:38.335Z" agent="5.0 (Windows)" etag="8obj1XVsTCzXKtdQ0o0t" version="20.0.3" type="github">
  <diagram id="qxr_8H5KHdtkBXrk1Vgu" name="Page-1">
    <mxGraphModel dx="1038" dy="603" grid="1" gridSize="10" guides="1" tooltips="1" connect="1" arrows="1" fold="1" page="1" pageScale="1" pageWidth="827" pageHeight="1169" math="0" shadow="0">
      <root>
        <mxCell id="0" />
        <mxCell id="1" parent="0" />
        <mxCell id="hrluLE2KfTxqFIvJlDf9-1" value="" style="shape=umlActor;verticalLabelPosition=bottom;verticalAlign=top;html=1;" vertex="1" parent="1">
          <mxGeometry x="460" y="440" width="30" height="60" as="geometry" />
        </mxCell>
        <mxCell id="hrluLE2KfTxqFIvJlDf9-2" value="" style="shape=umlActor;verticalLabelPosition=bottom;verticalAlign=top;html=1;" vertex="1" parent="1">
          <mxGeometry x="40" y="40" width="30" height="60" as="geometry" />
        </mxCell>
        <mxCell id="hrluLE2KfTxqFIvJlDf9-4" value="&lt;div&gt;client&lt;/div&gt;&lt;div&gt;&lt;br&gt;&lt;/div&gt;" style="text;html=1;align=center;verticalAlign=middle;resizable=0;points=[];autosize=1;strokeColor=none;fillColor=none;" vertex="1" parent="1">
          <mxGeometry x="445" y="490" width="60" height="50" as="geometry" />
        </mxCell>
        <mxCell id="hrluLE2KfTxqFIvJlDf9-5" value="" style="shape=umlActor;verticalLabelPosition=bottom;verticalAlign=top;html=1;" vertex="1" parent="1">
          <mxGeometry x="45" y="170" width="30" height="60" as="geometry" />
        </mxCell>
        <mxCell id="hrluLE2KfTxqFIvJlDf9-7" value="admin" style="text;html=1;align=center;verticalAlign=middle;resizable=0;points=[];autosize=1;strokeColor=none;fillColor=none;" vertex="1" parent="1">
          <mxGeometry x="30" y="95" width="60" height="30" as="geometry" />
        </mxCell>
        <mxCell id="hrluLE2KfTxqFIvJlDf9-8" value="&lt;div&gt;editeur&lt;/div&gt;&lt;div&gt;&lt;br&gt;&lt;/div&gt;" style="text;html=1;align=center;verticalAlign=middle;resizable=0;points=[];autosize=1;strokeColor=none;fillColor=none;" vertex="1" parent="1">
          <mxGeometry x="25" y="230" width="70" height="50" as="geometry" />
        </mxCell>
        <mxCell id="hrluLE2KfTxqFIvJlDf9-10" value="&lt;div&gt;formulaire de &lt;br&gt;&lt;/div&gt;&lt;div&gt;contacts&lt;/div&gt;" style="html=1;" vertex="1" parent="1">
          <mxGeometry x="30" y="400" width="110" height="50" as="geometry" />
        </mxCell>
        <mxCell id="hrluLE2KfTxqFIvJlDf9-13" value="remplir " style="text;html=1;align=center;verticalAlign=middle;resizable=0;points=[];autosize=1;strokeColor=none;fillColor=none;" vertex="1" parent="1">
          <mxGeometry x="285" y="425" width="70" height="30" as="geometry" />
        </mxCell>
        <mxCell id="hrluLE2KfTxqFIvJlDf9-14" value="" style="endArrow=block;startArrow=block;endFill=1;startFill=1;html=1;rounded=0;exitX=1;exitY=0.5;exitDx=0;exitDy=0;" edge="1" parent="1" source="hrluLE2KfTxqFIvJlDf9-10">
          <mxGeometry width="160" relative="1" as="geometry">
            <mxPoint x="230" y="420" as="sourcePoint" />
            <mxPoint x="440" y="470" as="targetPoint" />
          </mxGeometry>
        </mxCell>
        <mxCell id="hrluLE2KfTxqFIvJlDf9-15" value="" style="endArrow=block;startArrow=block;endFill=1;startFill=1;html=1;rounded=0;exitX=0.25;exitY=0;exitDx=0;exitDy=0;" edge="1" parent="1" source="hrluLE2KfTxqFIvJlDf9-10" target="hrluLE2KfTxqFIvJlDf9-8">
          <mxGeometry width="160" relative="1" as="geometry">
            <mxPoint x="330" y="310" as="sourcePoint" />
            <mxPoint x="490" y="310" as="targetPoint" />
          </mxGeometry>
        </mxCell>
        <mxCell id="hrluLE2KfTxqFIvJlDf9-16" value="recevoir" style="text;html=1;align=center;verticalAlign=middle;resizable=0;points=[];autosize=1;strokeColor=none;fillColor=none;" vertex="1" parent="1">
          <mxGeometry x="30" y="315" width="80" height="30" as="geometry" />
        </mxCell>
        <mxCell id="hrluLE2KfTxqFIvJlDf9-17" value="site vitrine " style="html=1;" vertex="1" parent="1">
          <mxGeometry x="180" y="40" width="250" height="130" as="geometry" />
        </mxCell>
        <mxCell id="hrluLE2KfTxqFIvJlDf9-18" value="gestion du site" style="endArrow=block;endFill=1;html=1;edgeStyle=orthogonalEdgeStyle;align=left;verticalAlign=top;rounded=0;" edge="1" parent="1">
          <mxGeometry x="-1" relative="1" as="geometry">
            <mxPoint x="50" y="120" as="sourcePoint" />
            <mxPoint x="210" y="120" as="targetPoint" />
          </mxGeometry>
        </mxCell>
        <mxCell id="hrluLE2KfTxqFIvJlDf9-19" value="1" style="edgeLabel;resizable=0;html=1;align=left;verticalAlign=bottom;" connectable="0" vertex="1" parent="hrluLE2KfTxqFIvJlDf9-18">
          <mxGeometry x="-1" relative="1" as="geometry" />
        </mxCell>
        <mxCell id="hrluLE2KfTxqFIvJlDf9-22" value="name" style="endArrow=block;endFill=1;html=1;edgeStyle=orthogonalEdgeStyle;align=left;verticalAlign=top;rounded=0;" edge="1" parent="1" target="hrluLE2KfTxqFIvJlDf9-17">
          <mxGeometry x="-1" relative="1" as="geometry">
            <mxPoint x="95" y="229" as="sourcePoint" />
            <mxPoint x="320" y="190" as="targetPoint" />
          </mxGeometry>
        </mxCell>
        <mxCell id="hrluLE2KfTxqFIvJlDf9-23" value="1" style="edgeLabel;resizable=0;html=1;align=left;verticalAlign=bottom;" connectable="0" vertex="1" parent="hrluLE2KfTxqFIvJlDf9-22">
          <mxGeometry x="-1" relative="1" as="geometry" />
        </mxCell>
        <mxCell id="hrluLE2KfTxqFIvJlDf9-24" value="editer" style="text;html=1;align=center;verticalAlign=middle;resizable=0;points=[];autosize=1;strokeColor=none;fillColor=none;" vertex="1" parent="1">
          <mxGeometry x="170" y="235" width="60" height="30" as="geometry" />
        </mxCell>
        <mxCell id="hrluLE2KfTxqFIvJlDf9-25" value="name" style="endArrow=block;endFill=1;html=1;edgeStyle=orthogonalEdgeStyle;align=left;verticalAlign=top;rounded=0;entryX=1;entryY=0.5;entryDx=0;entryDy=0;" edge="1" parent="1" target="hrluLE2KfTxqFIvJlDf9-17">
          <mxGeometry x="-1" relative="1" as="geometry">
            <mxPoint x="470" y="420" as="sourcePoint" />
            <mxPoint x="490" y="310" as="targetPoint" />
          </mxGeometry>
        </mxCell>
        <mxCell id="hrluLE2KfTxqFIvJlDf9-26" value="1" style="edgeLabel;resizable=0;html=1;align=left;verticalAlign=bottom;" connectable="0" vertex="1" parent="hrluLE2KfTxqFIvJlDf9-25">
          <mxGeometry x="-1" relative="1" as="geometry" />
        </mxCell>
        <mxCell id="hrluLE2KfTxqFIvJlDf9-27" value="consulter " style="text;html=1;align=center;verticalAlign=middle;resizable=0;points=[];autosize=1;strokeColor=none;fillColor=none;" vertex="1" parent="1">
          <mxGeometry x="430" y="245" width="80" height="30" as="geometry" />
        </mxCell>
        <mxCell id="hrluLE2KfTxqFIvJlDf9-28" value="interaction des utillisateurs" style="text;html=1;align=center;verticalAlign=middle;resizable=0;points=[];autosize=1;strokeColor=none;fillColor=none;" vertex="1" parent="1">
          <mxGeometry x="490" y="95" width="200" height="30" as="geometry" />
        </mxCell>
      </root>
    </mxGraphModel>
  </diagram>
</mxfile>
